<svg width="90" height="90" viewBox="0 0 90 90" fill="none" xmlns="http://www.w3.org/2000/svg">
<path d="M13.7595 18.9844L19.4456 82.2087L44.9613 89.0164L70.5481 82.3374L76.2406 18.9844H13.7595ZM64.4133 33.3781L64.0568 37.4801L63.9 39.3751H33.9687L34.6838 47.8126H63.1884L62.9979 49.3812L61.1592 69.7079L61.0242 70.8962L45 75.2091V75.2056L44.981 75.214L28.9659 71.0544L27.8789 59.0626H35.7314L36.2876 65.011L44.9958 67.2181L45 67.0536V67.062L53.7272 65.1994L54.6384 55.5469H27.5295L25.6071 33.8654L25.4194 31.6407H64.6003L64.4133 33.3781ZM19.6566 1.14404H23.6095V5.05061H27.2264V1.14404H31.1801V12.972H27.2264V9.01131H23.6102V12.972H19.6566V1.14404ZM36.3783 5.06678H32.8978V1.14404H43.8138V5.06678H40.332V12.972H36.3783V5.06678ZM45.5463 1.14404H49.6681L52.2042 5.30022L54.7376 1.14404H58.8614V12.972H54.9232V7.10936L52.2042 11.3147H52.1353L49.4142 7.10936V12.972H45.5456L45.5463 1.14404ZM60.8295 1.14404H64.7838V9.06264H70.3434V12.9727H60.8295V1.14404Z" fill="#F5F5FA"/>
</svg>
