<svg width="90" height="90" viewBox="0 0 90 90" fill="none" xmlns="http://www.w3.org/2000/svg">
<path d="M1.40625 0.703125V88.5938H89.2969V0.703125H1.40625ZM47.8962 75.5951C46.5989 78.2311 44.1225 79.9629 41.253 80.7989C36.8438 81.8114 32.6264 81.2341 29.4891 79.3512C27.3895 78.063 25.7498 76.0802 24.6368 73.7958L31.3305 69.6966C31.3889 69.7212 31.5647 70.039 31.7995 70.4496C32.6531 71.8798 33.3893 72.8923 34.8363 73.6031C36.258 74.0883 39.3792 74.3984 40.5844 71.8966C41.3205 70.624 41.0864 66.5332 41.0864 62.0072C41.0857 54.8951 41.1188 47.8125 41.1188 40.7812H49.3516C49.3516 48.5156 49.3938 55.8408 49.3516 63.3881C49.3692 68.0147 49.7707 72.1392 47.8962 75.5951ZM82.0498 73.2691C79.188 83.058 63.2327 83.3759 56.8568 76.9085C55.5096 75.3862 54.6652 74.591 53.8615 72.8339C57.2498 70.8848 57.2498 70.8848 60.5468 68.9773C62.3377 71.73 63.9935 73.2438 66.9727 73.8633C71.0142 74.3569 75.0804 72.9682 74.1684 68.6756C73.2312 65.1698 65.8927 64.317 60.8984 60.5679C55.8281 57.1627 54.6398 48.8883 58.8066 44.1605C60.1952 42.4118 62.5634 41.1068 65.0482 40.4796L67.6413 40.1442C72.6202 40.0437 75.7322 41.3585 78.0166 43.9095C78.6523 44.5535 79.1712 45.2482 80.1415 46.7536C77.4893 48.4439 77.4977 48.4277 73.6988 50.8873C72.8873 49.1393 71.5409 48.0424 70.1177 47.5657C67.9085 46.8963 65.1227 47.6241 64.5448 49.9584C64.3444 50.6777 64.3859 51.3471 64.7044 52.5354C65.5995 54.5766 68.6032 55.4639 71.2976 56.7021C79.0537 59.8479 81.6729 63.2208 82.317 67.2356C82.9371 70.6922 82.1672 72.9345 82.0498 73.2691Z" fill="#F5F5FA"/>
</svg>
