<svg width="90" height="90" viewBox="0 0 90 90" fill="none" xmlns="http://www.w3.org/2000/svg">
<path d="M13.8305 18.2812L19.504 81.9091L44.9613 88.9755L70.4897 81.9L76.1695 18.2812H13.8305ZM62.4938 53.7806L60.8414 69.1734L60.8477 70.4918L45 74.918L44.9873 74.9292L29.0131 70.5523L27.9324 58.3594H35.7659L36.3213 64.523L45.0028 66.8398L45 66.8503V66.8278L53.7145 64.3704L54.6342 54.1406H36.4184L36.2623 52.4848L35.9065 48.5142L35.7202 46.4062H55.3275L56.0405 38.6719H26.1766L26.0198 36.8515L25.6641 32.6116L25.4777 30.2344H64.5694L64.3816 32.5786L62.4938 53.7806ZM62.5781 10.1067L57.5515 4.21875H62.5781V0.703125H51.3281V3.77086L57.2274 9.14062H51.3281V12.6562H62.5781V10.1067ZM49.2188 10.1067L44.4326 4.21875H49.2188V0.703125H38.6719V3.77086L44.1091 9.14062H38.6719V12.6562H49.2188V10.1067ZM36.5625 9.14062H30.9375V4.21875H36.5625V0.703125H26.7188V12.6562H36.5625V9.14062Z" fill="#F5F5FA"/>
</svg>
