<svg width="90" height="90" viewBox="0 0 90 90" fill="none" xmlns="http://www.w3.org/2000/svg">
<path d="M82.6172 23.5547L82.8281 23.4141C82.4063 22.6406 81.7734 21.9375 81.1406 21.5859L47.1797 2.03906C46.6172 1.6875 45.8438 1.54688 45 1.54688C44.1562 1.54688 43.3828 1.75781 42.8203 2.03906L9.07031 21.6562C7.875 22.3594 7.03125 24.1172 7.03125 25.4531V64.6172C7.03125 65.3906 7.17187 66.2344 7.66406 67.0078L7.52344 67.0781C7.875 67.6406 8.36719 68.1328 8.85938 68.4141L42.75 88.0312C43.3125 88.3828 44.0859 88.5234 44.9297 88.5234C45.7734 88.5234 46.5469 88.3125 47.1094 88.0312L80.8594 68.4141C82.0547 67.7109 82.8984 65.9531 82.8984 64.6172V25.3828C82.9688 24.8203 82.8984 24.1875 82.6172 23.5547ZM45 62.2266C51.3984 62.2266 57.0234 58.7109 59.9766 53.5078L69.0469 58.8516C64.2656 67.1484 55.2656 72.7734 45 72.7734C29.6719 72.7734 17.2266 60.3281 17.2266 45C17.2266 29.6719 29.6719 17.2266 45 17.2266C55.3359 17.2266 64.3359 22.9219 69.1172 31.2891L59.9766 36.5625C57.0234 31.2891 51.3984 27.7734 45 27.7734C35.5078 27.7734 27.7734 35.5078 27.7734 45C27.7734 54.4922 35.5078 62.2266 45 62.2266Z" fill="#F5F5FA"/>
</svg>
